<?xml version="1.0" encoding="UTF-8"?><svg id="Layer_1" xmlns="http://www.w3.org/2000/svg" viewBox="0 0 481.42 92.98"><defs><style>.cls-1{fill:#fff;}</style></defs><path class="cls-1" d="m10.18,41.14v10.19c0,23.73,2.65,39.08,8.09,39.08,4.04,0,7.29-10.83,10.08-27.6h.9l-.35,28.76h-.55c-.35-1.68-.55-2.58-1.35-2.58-1.7,0-4.44,4-9.93,4C6.49,92.98,0,78.54,0,47.72S6.99,0,17.22,0c5.19,0,7.59,4,9.33,4,.8,0,1-.9,1.35-2.58h.55l.4,27.98h-.9c-2.75-15.86-5.74-26.82-10.03-26.82-5.04,0-7.74,11.86-7.74,38.56Z"/><path class="cls-1" d="m50.01,0c10.73,0,16.17,17.02,16.17,46.3s-5.24,46.68-16.77,46.68-16.47-16.64-16.47-45.01S38.88,0,50.01,0Zm5.89,42.3c0-26.44-.3-39.59-6.29-39.59s-6.44,13.67-6.44,40.11v9.29c0,24.24.6,38.17,6.44,38.17s6.29-12.51,6.29-38.43v-9.54Z"/><path class="cls-1" d="m97.67,91.69h-6.99L73.56,8.25v80.99h2.75v2.45h-6.84v-2.45h2.75V3.87h-2.75V1.42h13.77l13.08,64.74V3.87h-2.75V1.42h6.84v2.45h-2.75v87.82Z"/><path class="cls-1" d="m133.9,33.79h-.95c-2.7-21.02-4.24-29.66-8.78-29.66h-.6v84.86h4.24v2.71h-18.22v-2.71h4.24V4.13h-.65c-4.54,0-6.24,9.67-8.78,29.66h-.95l.5-32.37h29.45l.5,32.37Z"/><path class="cls-1" d="m162.75,1.42l.5,25.53h-.9c-2.75-16.89-5.09-22.7-11.13-22.7h-1.75v39.85h1.7c3.24,0,5.34-7.09,6.19-16.89h.75v38.17h-.85c-1.2-12.9-3.09-17.93-6.59-17.93h-1.2v41.4h1.9c6.34,0,10.73-11.22,12.23-25.28h1l-.4,28.11h-27.4v-2.84h2.94V4.26h-2.94V1.42h25.95Z"/><path class="cls-1" d="m188.95,76.73c0-10.7-3.09-14.19-9.23-18.7-6.04-4.38-10.63-10.57-10.63-30.05,0-14.44,4.14-27.98,11.83-27.98,4.59,0,7.19,4,8.88,4,.85,0,1.1-.9,1.45-2.58h.55l.35,26.05h-.8c-2.55-11.86-5.94-24.76-11.08-24.76-3.59,0-6.09,5.42-6.09,13.03,0,9.54,3.39,12.77,8.43,16.25,5.54,3.87,11.68,8.77,11.68,30.18,0,18.57-4.89,30.82-12.23,30.82-4.84,0-9.03-3.87-10.43-3.87-.8,0-1.1,1.42-1.5,3.87h-.7l-.5-30.69h.85c2.5,12.9,7.34,27.98,12.83,27.98,2.99,0,6.34-4.13,6.34-13.54Z"/><path class="cls-1" d="m217.9,76.73c0-10.7-3.09-14.19-9.23-18.7-6.04-4.38-10.63-10.57-10.63-30.05,0-14.44,4.14-27.98,11.83-27.98,4.59,0,7.19,4,8.88,4,.85,0,1.1-.9,1.45-2.58h.55l.35,26.05h-.8c-2.55-11.86-5.94-24.76-11.08-24.76-3.59,0-6.09,5.42-6.09,13.03,0,9.54,3.39,12.77,8.43,16.25,5.54,3.87,11.68,8.77,11.68,30.18,0,18.57-4.89,30.82-12.23,30.82-4.84,0-9.03-3.87-10.43-3.87-.8,0-1.1,1.42-1.5,3.87h-.7l-.5-30.69h.85c2.5,12.9,7.34,27.98,12.83,27.98,2.99,0,6.34-4.13,6.34-13.54Z"/><path class="cls-1" d="m252.29,1.42l.5,25.53h-.9c-2.75-16.89-5.09-22.7-11.13-22.7h-1.75v39.85h1.7c3.24,0,5.34-7.09,6.19-16.89h.75v38.17h-.85c-1.2-12.9-3.09-17.93-6.59-17.93h-1.2v41.4h1.9c6.34,0,10.73-11.22,12.23-25.28h1l-.4,28.11h-27.4v-2.84h2.94V4.26h-2.94V1.42h25.95Z"/><path class="cls-1" d="m287.97,76.73c0-10.7-3.09-14.19-9.23-18.7-6.04-4.38-10.63-10.57-10.63-30.05,0-14.44,4.14-27.98,11.83-27.98,4.59,0,7.19,4,8.88,4,.85,0,1.1-.9,1.45-2.58h.55l.35,26.05h-.8c-2.55-11.86-5.94-24.76-11.08-24.76-3.59,0-6.09,5.42-6.09,13.03,0,9.54,3.39,12.77,8.43,16.25,5.54,3.87,11.68,8.77,11.68,30.18,0,18.57-4.89,30.82-12.23,30.82-4.84,0-9.03-3.87-10.43-3.87-.8,0-1.1,1.42-1.5,3.87h-.7l-.5-30.69h.85c2.5,12.9,7.34,27.98,12.83,27.98,2.99,0,6.34-4.13,6.34-13.54Z"/><path class="cls-1" d="m325.35,33.79h-.95c-2.7-21.02-4.24-29.66-8.78-29.66h-.6v84.86h4.24v2.71h-18.22v-2.71h4.24V4.13h-.65c-4.54,0-6.24,9.67-8.78,29.66h-.95l.5-32.37h29.45l.5,32.37Z"/><path class="cls-1" d="m356.45,62.16V3.87h-3.24V1.42h7.29v2.45h-2.75v57.39c0,19.86-2.55,31.72-12.78,31.72-8.14,0-13.97-7.48-13.97-33.14V3.87h-2.75V1.42h15.72v2.45h-3.24v60.35c0,14.19,1.3,24.5,7.44,24.5,5.04,0,8.28-8.12,8.28-26.57Z"/><path class="cls-1" d="m376.46,91.69h-14.12v-2.45h3.29V3.87h-3.29V1.42h15.42c12.33,0,19.16,11.48,19.16,43.59,0,36.37-8.53,46.68-20.46,46.68Zm.8-2.45c6.74,0,9.38-11.22,9.38-40.11v-7.48c0-31.34-3.09-37.79-10.08-37.79h-1.2v85.37h1.9Z"/><path class="cls-1" d="m415.44,1.42v2.45h-2.75v85.37h2.75v2.45h-15.22v-2.45h2.75V3.87h-2.75V1.42h15.22Z"/><path class="cls-1" d="m435.8,0c10.73,0,16.17,17.02,16.17,46.3s-5.24,46.68-16.77,46.68-16.47-16.64-16.47-45.01S424.67,0,435.8,0Zm5.89,42.3c0-26.44-.3-39.59-6.29-39.59s-6.44,13.67-6.44,40.11v9.29c0,24.24.6,38.17,6.44,38.17s6.29-12.51,6.29-38.43v-9.54Z"/><path class="cls-1" d="m476.08,76.73c0-10.7-3.09-14.19-9.23-18.7-6.04-4.38-10.63-10.57-10.63-30.05,0-14.44,4.14-27.98,11.83-27.98,4.59,0,7.19,4,8.88,4,.85,0,1.1-.9,1.45-2.58h.55l.35,26.05h-.8c-2.55-11.86-5.94-24.76-11.08-24.76-3.59,0-6.09,5.42-6.09,13.03,0,9.54,3.39,12.77,8.43,16.25,5.54,3.87,11.68,8.77,11.68,30.18,0,18.57-4.89,30.82-12.23,30.82-4.84,0-9.03-3.87-10.43-3.87-.8,0-1.1,1.42-1.5,3.87h-.7l-.5-30.69h.85c2.5,12.9,7.34,27.98,12.83,27.98,2.99,0,6.34-4.13,6.34-13.54Z"/></svg>