<?xml version="1.0" encoding="UTF-8"?><svg id="Layer_1" xmlns="http://www.w3.org/2000/svg" viewBox="0 0 103.16 117.11"><defs><style>.cls-1{fill:#fff;}</style></defs><path class="cls-1" d="m19.89,77.91v7.7c0,17.94,5.17,29.54,15.8,29.54,7.9,0,14.24-8.19,19.7-20.87h1.75l-.68,21.74h-1.07c-.68-1.27-1.07-1.95-2.63-1.95-3.32,0-8.68,3.02-19.4,3.02C12.68,117.11,0,106.19,0,82.88s13.65-36.08,33.64-36.08c10.14,0,14.82,3.02,18.23,3.02,1.56,0,1.95-.68,2.63-1.95h1.07l.78,21.16h-1.76c-5.36-11.99-11.21-20.28-19.6-20.28-9.85,0-15.11,8.97-15.11,29.15Z"/><path class="cls-1" d="m92.73,58.02c0-8.09-6.05-10.73-18.04-14.14-11.8-3.32-20.77-8-20.77-22.72,0-10.92,8.09-21.16,23.11-21.16,8.97,0,14.04,3.02,17.36,3.02,1.66,0,2.15-.68,2.83-1.95h1.07l.68,19.7h-1.56c-4.97-8.97-11.6-18.72-21.65-18.72-7.02,0-11.9,4.1-11.9,9.85,0,7.22,6.63,9.65,16.48,12.29,10.82,2.93,22.82,6.63,22.82,22.82,0,14.04-9.56,23.3-23.89,23.3-9.46,0-17.65-2.93-20.38-2.93-1.56,0-2.15,1.07-2.93,2.93h-1.37l-.98-23.21h1.66c4.88,9.75,14.33,21.16,25.06,21.16,5.85,0,12.38-3.12,12.38-10.24Z"/><path class="cls-1" d="m78.49,76.74c5.07,0,8.68,2.53,8.68,8.29,0,5.17-2.93,8.68-8.39,8.68-6.53,0-8.68-4.49-8.68-8.39,0-4.78,2.93-8.58,8.39-8.58Z"/></svg>